<svg xmlns="http://www.w3.org/2000/svg" xmlns:xlink="http://www.w3.org/1999/xlink" width="400" height="400" version="1.1" viewBox="0 0 105.833 105.833"><metadata/><defs><clipPath id="f"><path d="m181.06 229.16h12.6l-17.085 33.839h-12.6z"/></clipPath><clipPath id="c"><path d="m144.57 229.16h-12.599l17.084 33.839h12.6z"/></clipPath><linearGradient id="e" x2="1" gradientTransform="matrix(-14.177 25.472 25.472 14.177 185.75 233.65)" gradientUnits="userSpaceOnUse"><stop offset="0" stop-color="#d6d6d6"/><stop offset=".517" stop-color="#fff"/><stop offset=".765" stop-color="#fff"/><stop offset=".907" stop-color="#fff"/><stop offset="1" stop-color="#fff"/></linearGradient><linearGradient id="b" x2="1" gradientTransform="matrix(0 -46.014 -46.014 0 146.82 267.62)" gradientUnits="userSpaceOnUse"><stop offset="0" stop-color="#d6d6d6"/><stop offset=".603" stop-color="#fff"/><stop offset="1" stop-color="#fff"/></linearGradient><linearGradient id="a" x2="1" gradientTransform="matrix(0 -23.606 -23.606 0 781.46 8.9385)" gradientUnits="userSpaceOnUse"><stop offset="0" stop-color="#d6d6d6"/><stop offset=".603" stop-color="#fff"/><stop offset="1" stop-color="#fff"/></linearGradient></defs><g><g clip-path="url(#f)" transform="matrix(3 0 0 3 -2293.6 59.178) matrix(.51303 0 0 .51303 698.48 -128.36)"><path fill="url(#e)" d="m181.06 229.16h12.6l-17.085 33.839h-12.6z"/></g><g clip-path="url(#c)" transform="matrix(3 0 0 3 -2293.6 59.178) matrix(.51303 0 0 .51303 698.48 -128.36)"><path fill="url(#b)" d="m144.57 229.16h-12.599l17.084 33.839h12.6z"/></g><path fill="url(#a)" stroke-width=".042" d="m777.69-3.1793 4.9205 9.7462h6.4638l-4.9208-9.7462z" transform="matrix(3 0 0 3 -2293.6 59.178)"/></g></svg>